<mxfile host="app.diagrams.net" modified="2023-05-05T07:55:39.879Z" agent="Mozilla/5.0 (Windows NT 10.0; Win64; x64) AppleWebKit/537.36 (KHTML, like Gecko) Chrome/112.0.0.0 Safari/537.36" version="21.2.9" etag="d-UMiQPOpcG6bAgduMV6" type="github">
  <diagram name="Page-1" id="MPc5On4ewx-qXX_QIdlI">
    <mxGraphModel>
      <root>
        <mxCell id="0" />
        <mxCell id="1" parent="0" />
      </root>
    </mxGraphModel>
  </diagram>
</mxfile>
